<?xml version="1.0" encoding="iso-8859-1"?>
<!-- Generator: Adobe Illustrator 27.0.0, SVG Export Plug-In . SVG Version: 6.00 Build 0)  -->
<svg version="1.1" xmlns="http://www.w3.org/2000/svg" xmlns:xlink="http://www.w3.org/1999/xlink" x="0px" y="0px"
	 viewBox="0 0 1000 1000.604" style="enable-background:new 0 0 1000 1000.604;" xml:space="preserve">
<g id="&#x426;&#x432;&#x435;&#x442;_&#x43F;&#x43E;&#x43C;&#x435;&#x449;&#x435;&#x43D;&#x438;&#x439;">
</g>
<g id="_x21__x21__x21__&#x41E;&#x43A;&#x43D;&#x430;_x2C__&#x434;&#x432;&#x435;&#x440;&#x438;">
	<g>
		
			<path style="fill:none;stroke:#5B5D65;stroke-width:0.6035;stroke-linecap:round;stroke-linejoin:round;stroke-miterlimit:10;" d="
			M411.087,537.358l43.555,0c0-24.214-19.616-43.84-43.818-43.84"/>
	</g>
	<g>
		
			<path style="fill:none;stroke:#5B5D65;stroke-width:0.6035;stroke-linecap:round;stroke-linejoin:round;stroke-miterlimit:10;" d="
			M411.087,359.246l43.555,0c0,24.214-19.616,43.84-43.818,43.84"/>
	</g>
	<g>
		
			<path style="fill:none;stroke:#5B5D65;stroke-width:0.6035;stroke-linecap:round;stroke-linejoin:round;stroke-miterlimit:10;" d="
			M529.339,446.299l0,53.605c29.801,0,53.955-24.141,53.955-53.927"/>
	</g>
	<g>
		
			<path style="fill:none;stroke:#5B5D65;stroke-width:0.6035;stroke-linecap:round;stroke-linejoin:round;stroke-miterlimit:10;" d="
			M466.243,599.068l0,49.991c-27.792,0-50.317-22.514-50.318-50.292"/>
	</g>
	<g>
		
			<path style="fill:none;stroke:#5B5D65;stroke-width:0.6035;stroke-linecap:round;stroke-linejoin:round;stroke-miterlimit:10;" d="
			M518.016,345.262v-49.991c27.792,0,50.317,22.514,50.317,50.292"/>
	</g>
	<g>
		
			<path style="fill:none;stroke:#5B5D65;stroke-width:0.6035;stroke-linecap:round;stroke-linejoin:round;stroke-miterlimit:10;" d="
			M481.879,345.262l0-49.991c-27.792,0-50.317,22.514-50.317,50.292"/>
	</g>
	<g>
		
			<line style="fill:none;stroke:#5B5D65;stroke-width:0.6035;stroke-linecap:round;stroke-linejoin:round;stroke-miterlimit:10;" x1="471.06" y1="964.756" x2="305.901" y2="964.756"/>
		
			<line style="fill:none;stroke:#5B5D65;stroke-width:0.6035;stroke-linecap:round;stroke-linejoin:round;stroke-miterlimit:10;" x1="471.06" y1="934.899" x2="305.901" y2="934.899"/>
		
			<line style="fill:none;stroke:#5B5D65;stroke-width:0.6035;stroke-linecap:round;stroke-linejoin:round;stroke-miterlimit:10;" x1="471.06" y1="955.157" x2="305.901" y2="955.157"/>
		
			<line style="fill:none;stroke:#5B5D65;stroke-width:0.6035;stroke-linecap:round;stroke-linejoin:round;stroke-miterlimit:10;" x1="471.06" y1="947.885" x2="305.901" y2="947.885"/>
	</g>
	<g>
		
			<line style="fill:none;stroke:#5B5D65;stroke-width:0.6035;stroke-linecap:round;stroke-linejoin:round;stroke-miterlimit:10;" x1="681.464" y1="35.848" x2="513.627" y2="35.848"/>
		
			<line style="fill:none;stroke:#5B5D65;stroke-width:0.6035;stroke-linecap:round;stroke-linejoin:round;stroke-miterlimit:10;" x1="681.464" y1="65.705" x2="513.627" y2="65.705"/>
		
			<line style="fill:none;stroke:#5B5D65;stroke-width:0.6035;stroke-linecap:round;stroke-linejoin:round;stroke-miterlimit:10;" x1="681.464" y1="45.447" x2="513.627" y2="45.447"/>
		
			<line style="fill:none;stroke:#5B5D65;stroke-width:0.6035;stroke-linecap:round;stroke-linejoin:round;stroke-miterlimit:10;" x1="681.464" y1="52.719" x2="513.627" y2="52.718"/>
	</g>
	<g>
		
			<line style="fill:none;stroke:#5B5D65;stroke-width:0.6035;stroke-linecap:round;stroke-linejoin:round;stroke-miterlimit:10;" x1="485.887" y1="35.848" x2="318.05" y2="35.848"/>
		
			<line style="fill:none;stroke:#5B5D65;stroke-width:0.6035;stroke-linecap:round;stroke-linejoin:round;stroke-miterlimit:10;" x1="485.887" y1="65.705" x2="318.05" y2="65.705"/>
		
			<line style="fill:none;stroke:#5B5D65;stroke-width:0.6035;stroke-linecap:round;stroke-linejoin:round;stroke-miterlimit:10;" x1="485.887" y1="45.447" x2="318.05" y2="45.447"/>
		
			<line style="fill:none;stroke:#5B5D65;stroke-width:0.6035;stroke-linecap:round;stroke-linejoin:round;stroke-miterlimit:10;" x1="485.887" y1="52.719" x2="318.05" y2="52.718"/>
	</g>
	<g>
		
			<rect x="372.217" y="932.832" transform="matrix(4.926910e-11 -1 1 4.926910e-11 -592.5683 1372.5183)" style="fill:none;stroke:#5B5D65;stroke-width:0.6035;stroke-linecap:round;stroke-linejoin:round;stroke-miterlimit:10;" width="35.517" height="99.422"/>
		
			<rect x="374.334" y="934.847" transform="matrix(4.950357e-11 -1 1 4.950357e-11 -592.5105 1372.4855)" style="fill:none;stroke:#5B5D65;stroke-width:0.6035;stroke-linecap:round;stroke-linejoin:round;stroke-miterlimit:10;" width="31.306" height="95.301"/>
	</g>
	<g>
		
			<rect x="578.188" y="-31.651" transform="matrix(3.718163e-11 1 -1 3.718163e-11 614.0068 -577.8865)" style="fill:none;stroke:#5B5D65;stroke-width:0.6035;stroke-linecap:round;stroke-linejoin:round;stroke-miterlimit:10;" width="35.517" height="99.422"/>
		
			<rect x="580.306" y="-29.545" transform="matrix(3.770832e-11 1 -1 3.770832e-11 614.0646 -577.8535)" style="fill:none;stroke:#5B5D65;stroke-width:0.6035;stroke-linecap:round;stroke-linejoin:round;stroke-miterlimit:10;" width="31.306" height="95.301"/>
	</g>
</g>
<g id="_x21__x21__x21__&#x41F;&#x443;&#x43D;&#x43A;&#x442;&#x438;&#x440;">
</g>
<g id="&#x421;&#x430;&#x43D;&#x442;&#x435;&#x445;&#x43D;&#x438;&#x43A;&#x430;">
	<g>
		
			<line style="opacity:0.8;fill:none;stroke:#5B5D65;stroke-width:0.3018;stroke-linecap:round;stroke-linejoin:round;stroke-miterlimit:10;" x1="324.605" y1="435.183" x2="320.144" y2="435.183"/>
		
			<path style="opacity:0.8;fill:none;stroke:#5B5D65;stroke-width:0.3018;stroke-linecap:round;stroke-linejoin:round;stroke-miterlimit:10;" d="
			M318.168,435.183h-9.218c-1.259,0-2.276,1.101-2.276,2.457v71.331c0,4.867,1.679,9.565,4.707,13.169
			c7.192,8.552,19.642,8.552,26.832,0c3.033-3.604,4.712-8.302,4.712-13.169V437.64c0-1.356-1.022-2.457-2.28-2.457h-10.795"/>
		
			<rect x="303.415" y="429.934" style="opacity:0.8;fill:none;stroke:#5B5D65;stroke-width:0.3018;stroke-linecap:round;stroke-linejoin:round;stroke-miterlimit:10;" width="42.768" height="103.866"/>
		
			<path style="opacity:0.8;fill:none;stroke:#5B5D65;stroke-width:0.3018;stroke-linecap:round;stroke-linejoin:round;stroke-miterlimit:10;" d="
			M324.798,451.103c-1.209,0-2.188-0.979-2.188-2.188c0-1.207,0.979-2.188,2.188-2.188c1.209,0,2.19,0.981,2.19,2.188
			C326.988,450.124,326.007,451.103,324.798,451.103z"/>
		
			<path style="opacity:0.8;fill:none;stroke:#5B5D65;stroke-width:0.3018;stroke-linecap:round;stroke-linejoin:round;stroke-miterlimit:10;" d="
			M320.144,429.935h-1.976v3.22v0.22v5.089c0,0,0.037,1.047,0.987,1.047s0.989-1.047,0.989-1.047v-5.089v-0.22v-1.188"/>
		
			<path style="opacity:0.8;fill:none;stroke:#5B5D65;stroke-width:0.3018;stroke-linecap:round;stroke-linejoin:round;stroke-miterlimit:10;" d="
			M328.357,432.704l0.053-0.641c0.082-1.017-0.683-1.981-1.804-2.112c-0.075-0.009-0.149-0.013-0.226-0.013
			c-0.075,0-0.151,0.004-0.226,0.013c-1.121,0.131-1.886,1.095-1.806,2.112l0.912,11.044c0,0.351,0.315,0.636,0.705,0.636h0.83
			c0.392,0,0.703-0.284,0.703-0.636l0.463-5.594"/>
		
			<path style="opacity:0.8;fill:none;stroke:#5B5D65;stroke-width:0.3018;stroke-linecap:round;stroke-linejoin:round;stroke-miterlimit:10;" d="
			M330.042,437.871l-0.323,0.196c-0.578,0.345-1.332,0.16-1.677-0.418l-2.671-4.431c-0.347-0.575-0.159-1.33,0.414-1.679l0.33-0.194
			c0.571-0.347,1.328-0.157,1.675,0.416l2.668,4.434C330.805,436.77,330.619,437.524,330.042,437.871z"/>
		
			<path style="opacity:0.8;fill:none;stroke:#5B5D65;stroke-width:0.3018;stroke-linecap:round;stroke-linejoin:round;stroke-miterlimit:10;" d="
			M328.3,432.613c1.559-0.084,3.583-0.244,4.125-0.519c0.754-0.386,0.42-1.459,0.42-1.459v-0.685h-12.936v0.685
			c0,0-0.332,1.073,0.422,1.459c0.533,0.271,2.51,0.43,4.061,0.515"/>
		
			<path style="opacity:0.8;fill:none;stroke:#5B5D65;stroke-width:0.3018;stroke-linecap:round;stroke-linejoin:round;stroke-miterlimit:10;" d="
			M317.314,435.183c-1.155,0.646-1.935,1.881-1.935,3.298c0,2.086,1.69,3.778,3.776,3.778c2.086,0,3.776-1.692,3.776-3.778
			c0-1.416-0.78-2.652-1.935-3.298"/>
	</g>
	<g>
		
			<path style="opacity:0.8;fill:none;stroke:#5B5D65;stroke-width:0.3018;stroke-linecap:round;stroke-linejoin:round;stroke-miterlimit:10;" d="
			M374.338,442.061c0,0.765-0.623,1.385-1.391,1.385c-0.766,0-1.387-0.62-1.387-1.385c0-0.767,0.622-1.387,1.387-1.387
			C373.715,440.674,374.338,441.294,374.338,442.061z"/>
		
			<path style="opacity:0.8;fill:none;stroke:#5B5D65;stroke-width:0.3018;stroke-linecap:round;stroke-linejoin:round;stroke-miterlimit:10;" d="
			M373.977,433.883c0,0.566-0.461,1.025-1.029,1.025c-0.566,0-1.026-0.459-1.026-1.025c0-0.567,0.46-1.026,1.026-1.026
			C373.516,432.857,373.977,433.316,373.977,433.883z"/>
		
			<path style="opacity:0.8;fill:none;stroke:#5B5D65;stroke-width:0.3018;stroke-linecap:round;stroke-linejoin:round;stroke-miterlimit:10;" d="
			M356.053,429.934c0,5.09,0,10.181,0,15.271c0.016,0.991,0.197,2.41,1.048,3.748c1.233,1.939,3.304,2.811,5.757,3.415
			c0.741,0.182,1.545,0.416,3.087,0.641c5.711,0.834,10.567,0.502,14.003,0c1.542-0.225,2.345-0.459,3.087-0.641
			c2.454-0.604,4.524-1.476,5.757-3.415c0.851-1.338,1.032-2.756,1.048-3.748l0-15.271L356.053,429.934z"/>
		
			<path style="opacity:0.8;fill:none;stroke:#5B5D65;stroke-width:0.3018;stroke-linecap:round;stroke-linejoin:round;stroke-miterlimit:10;" d="
			M387.867,445.959c0-2.101,0-4.203,0-6.304c-0.009-0.223-0.07-1.056-0.736-1.766c-0.782-0.833-1.805-0.863-1.987-0.865
			c-8.131,0-16.261,0-24.392,0c-0.182,0.002-1.205,0.031-1.987,0.865c-0.666,0.709-0.727,1.543-0.736,1.766v6.304
			c0.071,0.475,0.255,1.262,0.804,2.046c0.602,0.86,1.334,1.277,1.88,1.58c1.197,0.664,2.47,0.899,4.52,1.278l0.001,0
			c0.954,0.176,2.647,0.484,4.662,0.633c0.782,0.058,1.819,0.107,3.053,0.088h0c1.226,0.018,2.263-0.03,3.053-0.088
			c2.077-0.152,3.772-0.466,4.662-0.633l0.001,0c2.095-0.394,3.342-0.629,4.52-1.278c0.534-0.294,1.214-0.679,1.801-1.469
			C387.596,447.291,387.793,446.446,387.867,445.959z"/>
	</g>
	<g>
		
			<path style="opacity:0.8;fill:none;stroke:#5B5D65;stroke-width:0.3018;stroke-linecap:round;stroke-linejoin:round;stroke-miterlimit:10;" d="
			M343.629,364.307c-0.404-0.004-0.702,0.012-0.844,0.021l-22.635-0.005v0.019v22.841v0.019l22.635-0.005
			c0.142,0.009,0.44,0.025,0.844,0.021c1.369,0.018,3.739-0.184,5.804-1.595c0.645-0.415,1.262-0.935,1.808-1.589
			c1.997-2.387,1.942-5.203,1.883-8.262c0-0.003,0-0.006,0-0.009c0-0.003,0-0.006,0-0.009c0.059-3.059,0.114-5.875-1.883-8.262
			c-0.546-0.653-1.163-1.173-1.808-1.589C347.368,364.491,344.998,364.29,343.629,364.307z"/>
		
			<path style="opacity:0.8;fill:none;stroke:#5B5D65;stroke-width:0.3018;stroke-linecap:round;stroke-linejoin:round;stroke-miterlimit:10;" d="
			M326.727,380.3c-0.034,0.035-0.189,0.2-0.189,0.461s0.155,0.427,0.189,0.461c0.034,0.034,0.197,0.192,0.454,0.192
			s0.42-0.158,0.454-0.192c0.034-0.035,0.189-0.2,0.19-0.461c0-0.261-0.155-0.427-0.19-0.461c-0.034-0.035-0.197-0.192-0.454-0.192
			C326.924,380.107,326.761,380.265,326.727,380.3z"/>
		
			<path style="opacity:0.8;fill:none;stroke:#5B5D65;stroke-width:0.3018;stroke-linecap:round;stroke-linejoin:round;stroke-miterlimit:10;" d="
			M326.727,370.24c-0.034,0.035-0.189,0.2-0.189,0.461c0,0.261,0.155,0.427,0.189,0.461c0.034,0.035,0.197,0.192,0.454,0.192
			s0.42-0.158,0.454-0.192c0.034-0.035,0.189-0.2,0.19-0.461c0-0.261-0.155-0.427-0.19-0.461c-0.034-0.035-0.197-0.192-0.454-0.192
			C326.924,370.048,326.761,370.205,326.727,370.24z"/>
		
			<path style="opacity:0.8;fill:none;stroke:#5B5D65;stroke-width:0.3018;stroke-linecap:round;stroke-linejoin:round;stroke-miterlimit:10;" d="
			M334.692,377.703c0,0.239,0.187,0.431,0.419,0.431h2.644c0.481,0,0.957-0.108,1.385-0.327c0.605-0.308,1.254-0.907,1.254-2.036
			c0-1.133-0.649-1.732-1.254-2.04c-0.428-0.219-0.904-0.326-1.385-0.326h-2.644c-0.232,0-0.419,0.192-0.419,0.429V377.703z"/>
		
			<path style="opacity:0.8;fill:none;stroke:#5B5D65;stroke-width:0.3018;stroke-linecap:round;stroke-linejoin:round;stroke-miterlimit:10;" d="
			M330.657,368.593c-1.497,1.467-1.531,3.452-1.537,7.17c-0.006,3.746,0.021,5.766,1.537,7.25c0.81,0.793,1.752,1.146,2.391,1.317
			c3.959,0,7.918,0,11.877,0c0.631-0.024,2.074-0.17,3.328-1.218c0.213-0.178,0.746-0.65,1.267-1.595
			c0.96-1.74,0.98-3.751,0.98-5.714c0-1.962-0.02-3.974-0.98-5.714c-0.521-0.945-1.054-1.417-1.267-1.595
			c-1.254-1.048-2.696-1.194-3.328-1.218c-3.959,0-7.918,0-11.877,0C332.415,367.446,331.47,367.797,330.657,368.593z"/>
	</g>
	<g>
		
			<path style="opacity:0.8;fill:none;stroke:#5B5D65;stroke-width:0.3018;stroke-linecap:round;stroke-linejoin:round;stroke-miterlimit:10;" d="
			M380.238,404.044c0-0.765,0.623-1.385,1.391-1.385c0.766,0,1.387,0.62,1.387,1.385c0,0.767-0.622,1.387-1.387,1.387
			C380.861,405.431,380.238,404.811,380.238,404.044z"/>
		
			<path style="opacity:0.8;fill:none;stroke:#5B5D65;stroke-width:0.3018;stroke-linecap:round;stroke-linejoin:round;stroke-miterlimit:10;" d="
			M380.599,412.222c0-0.566,0.461-1.025,1.029-1.025c0.566,0,1.026,0.459,1.026,1.025c0,0.567-0.46,1.026-1.026,1.026
			C381.061,413.248,380.599,412.789,380.599,412.222z"/>
		
			<path style="opacity:0.8;fill:none;stroke:#5B5D65;stroke-width:0.3018;stroke-linecap:round;stroke-linejoin:round;stroke-miterlimit:10;" d="
			M398.523,416.171c0-5.09,0-10.181,0-15.271c-0.016-0.991-0.197-2.41-1.048-3.748c-1.233-1.939-3.304-2.811-5.757-3.415
			c-0.741-0.182-1.545-0.416-3.087-0.641c-5.711-0.834-10.567-0.502-14.003,0c-1.542,0.225-2.345,0.459-3.087,0.641
			c-2.454,0.604-4.524,1.476-5.757,3.415c-0.851,1.338-1.032,2.756-1.048,3.748v15.271H398.523z"/>
		
			<path style="opacity:0.8;fill:none;stroke:#5B5D65;stroke-width:0.3018;stroke-linecap:round;stroke-linejoin:round;stroke-miterlimit:10;" d="
			M366.709,400.146c0,2.101,0,4.203,0,6.304c0.009,0.223,0.07,1.056,0.736,1.766c0.782,0.833,1.805,0.863,1.987,0.865
			c8.131,0,16.261,0,24.392,0c0.182-0.002,1.205-0.031,1.987-0.865c0.666-0.709,0.727-1.543,0.736-1.766v-6.304
			c-0.071-0.475-0.255-1.262-0.804-2.046c-0.602-0.86-1.334-1.277-1.88-1.58c-1.197-0.664-2.47-0.899-4.52-1.278l-0.001,0
			c-0.954-0.176-2.647-0.484-4.662-0.633c-0.782-0.058-1.819-0.107-3.053-0.088h0c-1.226-0.018-2.263,0.03-3.053,0.088
			c-2.077,0.152-3.772,0.466-4.662,0.633l-0.001,0c-2.095,0.394-3.342,0.629-4.52,1.278c-0.534,0.294-1.214,0.679-1.801,1.469
			C366.98,398.814,366.783,399.659,366.709,400.146z"/>
	</g>
	<g>
		
			<rect x="660.855" y="308.345" transform="matrix(-1.836970e-16 1 -1 -1.836970e-16 1005.8585 -352.5098)" style="opacity:0.8;fill:none;stroke:#5B5D65;stroke-width:0.3018;stroke-linecap:round;stroke-linejoin:round;stroke-miterlimit:10;" width="36.659" height="36.659"/>
		
			<circle style="opacity:0.8;fill:none;stroke:#5B5D65;stroke-width:0.3018;stroke-linecap:round;stroke-linejoin:round;stroke-miterlimit:10;" cx="682.551" cy="326.698" r="2.75"/>
		
			<circle style="opacity:0.8;fill:none;stroke:#5B5D65;stroke-width:0.3018;stroke-linecap:round;stroke-linejoin:round;stroke-miterlimit:10;" cx="692.015" cy="326.698" r="1.069"/>
		
			<circle style="opacity:0.8;fill:none;stroke:#5B5D65;stroke-width:0.3018;stroke-linecap:round;stroke-linejoin:round;stroke-miterlimit:10;" cx="692.015" cy="337.331" r="1.069"/>
		
			<path style="opacity:0.8;fill:none;stroke:#5B5D65;stroke-width:0.3018;stroke-linecap:round;stroke-linejoin:round;stroke-miterlimit:10;" d="
			M663.91,341.643v-29.938c0-0.168,0.138-0.306,0.305-0.306h29.938c0.168,0,0.305,0.137,0.305,0.306v29.938
			c0,0.168-0.137,0.306-0.305,0.306h-29.938C664.047,341.949,663.91,341.811,663.91,341.643z"/>
		
			<path style="opacity:0.8;fill:none;stroke:#5B5D65;stroke-width:0.3018;stroke-linecap:round;stroke-linejoin:round;stroke-miterlimit:10;" d="
			M665.44,340.13v-26.883c0-0.168,0.137-0.305,0.305-0.305h23.828c0.168,0,0.305,0.137,0.305,0.305v26.883
			c0,0.168-0.137,0.306-0.305,0.306h-23.828C665.578,340.436,665.44,340.298,665.44,340.13z"/>
	</g>
	<g>
		
			<rect x="660.855" y="228.221" transform="matrix(-1.836970e-16 1 -1 -1.836970e-16 925.734 -432.6344)" style="opacity:0.8;fill:none;stroke:#5B5D65;stroke-width:0.3018;stroke-linecap:round;stroke-linejoin:round;stroke-miterlimit:10;" width="36.659" height="36.659"/>
		<g>
			
				<circle style="opacity:0.8;fill:none;stroke:#5B5D65;stroke-width:0.3018;stroke-linecap:round;stroke-linejoin:round;stroke-miterlimit:10;" cx="687.707" cy="256.234" r="6.415"/>
		</g>
		<g>
			
				<circle style="opacity:0.8;fill:none;stroke:#5B5D65;stroke-width:0.3018;stroke-linecap:round;stroke-linejoin:round;stroke-miterlimit:10;" cx="672.073" cy="235.949" r="5.499"/>
		</g>
		<g>
			
				<circle style="opacity:0.8;fill:none;stroke:#5B5D65;stroke-width:0.3018;stroke-linecap:round;stroke-linejoin:round;stroke-miterlimit:10;" cx="687.707" cy="235.949" r="4.277"/>
		</g>
		<g>
			
				<circle style="opacity:0.8;fill:none;stroke:#5B5D65;stroke-width:0.3018;stroke-linecap:round;stroke-linejoin:round;stroke-miterlimit:10;" cx="672.073" cy="256.234" r="4.277"/>
		</g>
		
			<circle style="opacity:0.8;fill:none;stroke:#5B5D65;stroke-width:0.3018;stroke-linecap:round;stroke-linejoin:round;stroke-miterlimit:10;" cx="663.689" cy="245.449" r="0.413"/>
		
			<circle style="opacity:0.8;fill:none;stroke:#5B5D65;stroke-width:0.3018;stroke-linecap:round;stroke-linejoin:round;stroke-miterlimit:10;" cx="663.689" cy="247.738" r="0.413"/>
		
			<circle style="opacity:0.8;fill:none;stroke:#5B5D65;stroke-width:0.3018;stroke-linecap:round;stroke-linejoin:round;stroke-miterlimit:10;" cx="665.978" cy="247.738" r="0.413"/>
		
			<circle style="opacity:0.8;fill:none;stroke:#5B5D65;stroke-width:0.3018;stroke-linecap:round;stroke-linejoin:round;stroke-miterlimit:10;" cx="665.978" cy="245.449" r="0.413"/>
	</g>
</g>
<g id="&#x41F;&#x435;&#x440;&#x435;&#x433;&#x43E;&#x440;&#x43E;&#x434;&#x43A;&#x438;">
	<rect x="290.9" y="673.449" style="fill:#5B5D65;" width="12.515" height="203.364"/>
	<rect x="290.9" y="402.296" style="fill:#5B5D65;" width="12.515" height="197.108"/>
	<rect x="290.9" y="125.409" style="fill:#5B5D65;" width="12.515" height="202.843"/>
	<rect x="475.492" y="671.365" style="fill:#5B5D65;" width="12.515" height="205.448"/>
	<rect x="475.492" y="439.321" style="fill:#5B5D65;" width="12.515" height="139.747"/>
	<g>
		<defs>
			<path id="SVGID_1_" d="M587.082,451.835h21.902v-12.513h-21.902V451.835z M488.007,451.835h37.024v-12.513h-37.024V451.835z"/>
		</defs>
		<use xlink:href="#SVGID_1_"  style="overflow:visible;fill-rule:evenodd;clip-rule:evenodd;fill:#5B5D65;"/>
		<clipPath id="SVGID_00000149375275255836100780000010526806102943492505_">
			<use xlink:href="#SVGID_1_"  style="overflow:visible;"/>
		</clipPath>
		
			<rect x="488.007" y="439.321" style="clip-path:url(#SVGID_00000149375275255836100780000010526806102943492505_);fill:#5B5D65;" width="120.977" height="12.513"/>
	</g>
	<rect x="665.82" y="344.925" style="fill:#5B5D65;" width="32.33" height="2.62"/>
	<rect x="303.415" y="344.938" style="fill:#5B5D65;" width="107.418" height="5.214"/>
	<g>
		<defs>
			<path id="SVGID_00000065764155796626152390000009133441699257679505_" d="M470.278,598.883h5.214v-4.693h-5.214V598.883z
				 M303.415,598.883h110.546v-4.693H303.415V598.883z"/>
		</defs>
		
			<use xlink:href="#SVGID_00000065764155796626152390000009133441699257679505_"  style="overflow:visible;fill-rule:evenodd;clip-rule:evenodd;fill:#5B5D65;"/>
		<clipPath id="SVGID_00000119085097767255783540000018033385933729483400_">
			<use xlink:href="#SVGID_00000065764155796626152390000009133441699257679505_"  style="overflow:visible;"/>
		</clipPath>
		
			<rect x="303.415" y="594.189" style="clip-path:url(#SVGID_00000119085097767255783540000018033385933729483400_);fill:#5B5D65;" width="172.076" height="4.693"/>
	</g>
	<g>
		<defs>
			<path id="SVGID_00000067915320889213700690000003471890961419736767_" d="M406.14,594.19h4.693v-53.71h-4.693V594.19z
				 M406.14,490.422h4.693v-84.474h-4.693V490.422z M406.14,356.41h4.693v-6.258h-4.693V356.41z"/>
		</defs>
		
			<use xlink:href="#SVGID_00000067915320889213700690000003471890961419736767_"  style="overflow:visible;fill-rule:evenodd;clip-rule:evenodd;fill:#5B5D65;"/>
		<clipPath id="SVGID_00000049910504992311264530000011779390634845342653_">
			<use xlink:href="#SVGID_00000067915320889213700690000003471890961419736767_"  style="overflow:visible;"/>
		</clipPath>
		
			<rect x="406.14" y="350.152" style="clip-path:url(#SVGID_00000049910504992311264530000011779390634845342653_);fill:#5B5D65;" width="4.693" height="244.038"/>
	</g>
	<rect x="303.415" y="415.855" style="fill:#5B5D65;" width="102.724" height="5.215"/>
	<rect x="318.537" y="350.151" style="fill:#5B5D65;" width="1.565" height="65.703"/>
	<rect x="345.129" y="428.369" style="fill:#5B5D65;" width="61.012" height="1.565"/>
	<rect x="303.415" y="428.369" style="fill:#5B5D65;" width="41.714" height="1.565"/>
	<rect x="345.13" y="421.07" style="fill:#5B5D65;" width="1.565" height="8.864"/>
	<rect x="665.82" y="361.625" style="fill:#5B5D65;" width="32.33" height="5.215"/>
	<rect x="661.127" y="344.937" style="fill:#5B5D65;" width="4.692" height="21.902"/>
	<g>
		<defs>
			<path id="SVGID_00000127046378672615722780000012975991399237382792_" d="M571.439,350.153h89.689v-5.214h-89.689V350.153z
				 M484.878,350.153h30.766v-5.214h-30.766V350.153z M410.833,350.153h17.729v-5.214h-17.729V350.153z"/>
		</defs>
		
			<use xlink:href="#SVGID_00000127046378672615722780000012975991399237382792_"  style="overflow:visible;fill-rule:evenodd;clip-rule:evenodd;fill:#5B5D65;"/>
		<clipPath id="SVGID_00000005264000921467395230000015597262434772449953_">
			<use xlink:href="#SVGID_00000127046378672615722780000012975991399237382792_"  style="overflow:visible;"/>
		</clipPath>
		
			<rect x="410.833" y="344.938" style="clip-path:url(#SVGID_00000005264000921467395230000015597262434772449953_);fill:#5B5D65;" width="250.294" height="5.215"/>
	</g>
	<rect x="502.086" y="106.637" style="fill:#5B5D65;" width="4.693" height="183.027"/>
	<rect x="608.983" y="421.07" style="fill:#5B5D65;" width="89.167" height="11.992"/>
	<rect x="596.468" y="421.069" style="fill:#5B5D65;" width="12.515" height="18.251"/>
	<rect x="475.492" y="550.388" style="fill:#5B5D65;" width="12.515" height="28.679"/>
</g>
<g id="_x21__x21__x21__&#x428;&#x430;&#x445;&#x442;&#x44B;">
</g>
<g id="&#x41D;&#x435;&#x441;&#x443;&#x449;&#x438;&#x435;">
	
		<polygon style="fill:#5B5D65;stroke:#5B5D65;stroke-width:1.207;stroke-linecap:round;stroke-linejoin:round;stroke-miterlimit:10;" points="
		290.9,964.756 309.753,964.756 309.753,955.391 306.371,955.391 306.371,934.899 290.9,934.899 	"/>
	
		<polygon style="fill:#5B5D65;stroke:#5B5D65;stroke-width:1.207;stroke-linecap:round;stroke-linejoin:round;stroke-miterlimit:10;" points="
		488.007,934.899 469.362,934.899 469.362,955.391 465.98,955.391 465.98,964.756 488.007,964.756 	"/>
	
		<polygon style="fill:#5B5D65;stroke:#5B5D65;stroke-width:1.207;stroke-linecap:round;stroke-linejoin:round;stroke-miterlimit:10;" points="
		520.625,35.794 476.749,35.794 476.749,45.158 480.687,45.158 480.687,65.65 516.687,65.65 516.687,45.158 520.625,45.158 	"/>
	
		<polygon style="fill:#5B5D65;stroke:#5B5D65;stroke-width:1.207;stroke-linecap:round;stroke-linejoin:round;stroke-miterlimit:10;" points="
		709.1,35.794 674.298,35.794 674.298,45.158 677.68,45.158 677.68,65.65 709.1,65.65 	"/>
	
		<polygon style="fill:#5B5D65;stroke:#5B5D65;stroke-width:1.207;stroke-linecap:round;stroke-linejoin:round;stroke-miterlimit:10;" points="
		290.9,65.65 319.757,65.65 319.757,45.158 323.14,45.158 323.14,35.794 290.9,35.794 	"/>
	
		<rect x="290.9" y="876.812" style="fill:#5B5D65;stroke:#5B5D65;stroke-width:1.207;stroke-linecap:round;stroke-linejoin:round;stroke-miterlimit:10;" width="12.515" height="73.525"/>
	
		<rect x="290.9" y="599.406" style="fill:#5B5D65;stroke:#5B5D65;stroke-width:1.207;stroke-linecap:round;stroke-linejoin:round;stroke-miterlimit:10;" width="12.515" height="74.043"/>
	
		<rect x="290.9" y="51.364" style="fill:#5B5D65;stroke:#5B5D65;stroke-width:1.207;stroke-linecap:round;stroke-linejoin:round;stroke-miterlimit:10;" width="12.515" height="74.045"/>
	
		<rect x="290.9" y="328.254" style="fill:#5B5D65;stroke:#5B5D65;stroke-width:1.207;stroke-linecap:round;stroke-linejoin:round;stroke-miterlimit:10;" width="12.515" height="74.043"/>
	
		<rect x="475.492" y="876.812" style="fill:#5B5D65;stroke:#5B5D65;stroke-width:1.207;stroke-linecap:round;stroke-linejoin:round;stroke-miterlimit:10;" width="12.515" height="73.525"/>
	
		<rect x="475.492" y="579.067" style="fill:#5B5D65;stroke:#5B5D65;stroke-width:1.207;stroke-linecap:round;stroke-linejoin:round;stroke-miterlimit:10;" width="12.515" height="92.297"/>
	
		<rect x="494.264" y="51.364" style="fill:#5B5D65;stroke:#5B5D65;stroke-width:1.207;stroke-linecap:round;stroke-linejoin:round;stroke-miterlimit:10;" width="11.992" height="55.273"/>
	
		<rect x="494.264" y="289.669" style="fill:#5B5D65;stroke:#5B5D65;stroke-width:1.207;stroke-linecap:round;stroke-linejoin:round;stroke-miterlimit:10;" width="11.992" height="55.27"/>
	
		<rect x="698.15" y="51.365" style="fill:#5B5D65;stroke:#5B5D65;stroke-width:1.207;stroke-linecap:round;stroke-linejoin:round;stroke-miterlimit:10;" width="10.95" height="381.698"/>
</g>
<g id="_x21__x21__x21__&#x41B;&#x435;&#x441;&#x442;&#x43D;&#x438;&#x446;&#x44B;_x2C__&#x43B;&#x438;&#x444;&#x442;&#x44B;">
</g>
<g id="_x21__x21__x21__&#x41F;&#x43B;&#x43E;&#x449;&#x430;&#x434;&#x438;">
	<g>
		<path style="fill:#5B5D65;" d="M337.513,894.344l-1.676,1.677c-0.141,0.138-0.311,0.206-0.51,0.206
			c-0.488,0-0.731-0.243-0.731-0.729c0-0.198,0.069-0.368,0.21-0.508l2.851-2.852c0.191-0.191,0.387-0.287,0.586-0.287
			c0.486,0,0.729,0.243,0.729,0.729v13.128c0,0.486-0.243,0.729-0.729,0.729s-0.729-0.243-0.729-0.729V894.344z"/>
		<path style="fill:#5B5D65;" d="M341.889,898.415v-5.835c0-0.486,0.243-0.729,0.729-0.729h5.104c0.486,0,0.729,0.243,0.729,0.729
			s-0.243,0.729-0.729,0.729h-4.376v4.376h2.188c1.009,0,1.869,0.357,2.58,1.072c0.711,0.714,1.066,1.572,1.066,2.574v1.459
			c0,1.009-0.357,1.869-1.072,2.58c-0.714,0.711-1.572,1.066-2.574,1.066h-2.917c-0.486,0-0.729-0.243-0.729-0.729
			s0.243-0.729,0.729-0.729h2.917c0.611,0,1.129-0.211,1.553-0.635c0.423-0.424,0.635-0.941,0.635-1.553v-1.459
			c0-0.604-0.213-1.12-0.641-1.547c-0.427-0.428-0.943-0.641-1.547-0.641h-2.917C342.132,899.144,341.889,898.901,341.889,898.415z"
			/>
		<path style="fill:#5B5D65;" d="M353.558,904.978c0.486,0,0.729,0.24,0.729,0.719c0,0.066-0.25,1.102-0.751,3.105
			c-0.089,0.368-0.324,0.552-0.707,0.552c-0.486,0-0.729-0.243-0.729-0.729c0-0.332,0.25-1.363,0.751-3.095
			C352.955,905.163,353.19,904.978,353.558,904.978z"/>
		<path style="fill:#5B5D65;" d="M357.206,902.791c0-0.081,0.007-0.147,0.021-0.199l2.918-10.211c0.103-0.354,0.339-0.53,0.707-0.53
			c0.486,0,0.729,0.244,0.729,0.731c0,0.066-0.009,0.137-0.025,0.21l-2.66,9.27h3.415v-2.188c0-0.485,0.243-0.729,0.729-0.729
			c0.486,0,0.729,0.243,0.729,0.729v2.188h1.459c0.486,0,0.729,0.243,0.729,0.729s-0.243,0.729-0.729,0.729h-1.459v2.188
			c0,0.486-0.243,0.729-0.729,0.729c-0.485,0-0.729-0.243-0.729-0.729v-2.188h-4.376
			C357.449,903.52,357.206,903.277,357.206,902.791z"/>
		<path style="fill:#5B5D65;" d="M372.521,899.144h-1.459c-0.486,0-0.729-0.243-0.729-0.729s0.243-0.729,0.729-0.729h1.459
			c0.611,0,1.129-0.212,1.553-0.636c0.423-0.423,0.635-0.94,0.635-1.553c0-0.604-0.213-1.119-0.641-1.547
			c-0.427-0.427-0.943-0.641-1.547-0.641h-2.917c-0.486,0-0.729-0.243-0.729-0.729s0.243-0.729,0.729-0.729h2.917
			c1.009,0,1.869,0.357,2.58,1.072s1.066,1.572,1.066,2.574c0,1.209-0.486,2.181-1.459,2.918c0.973,0.736,1.459,1.709,1.459,2.917
			v1.459c0,1.009-0.357,1.869-1.072,2.58c-0.714,0.711-1.572,1.066-2.574,1.066h-2.917c-0.486,0-0.729-0.243-0.729-0.729
			s0.243-0.729,0.729-0.729h2.917c0.611,0,1.129-0.211,1.553-0.635c0.423-0.424,0.635-0.941,0.635-1.553v-1.459
			c0-0.604-0.213-1.12-0.641-1.547C373.641,899.357,373.124,899.144,372.521,899.144z"/>
	</g>
	<g>
		<path style="fill:#5B5D65;" d="M360.666,527.331c0-0.081,0.007-0.147,0.021-0.199l2.918-10.211c0.103-0.354,0.339-0.53,0.707-0.53
			c0.486,0,0.729,0.244,0.729,0.731c0,0.066-0.009,0.137-0.025,0.21l-2.66,9.27h3.415v-2.188c0-0.485,0.243-0.729,0.729-0.729
			c0.486,0,0.729,0.243,0.729,0.729v2.188h1.459c0.486,0,0.729,0.243,0.729,0.729s-0.243,0.729-0.729,0.729h-1.459v2.188
			c0,0.486-0.243,0.729-0.729,0.729c-0.485,0-0.729-0.243-0.729-0.729v-2.188h-4.376C360.91,528.06,360.666,527.817,360.666,527.331
			z"/>
		<path style="fill:#5B5D65;" d="M373.793,529.518c0.486,0,0.729,0.24,0.729,0.719c0,0.066-0.25,1.102-0.751,3.105
			c-0.089,0.368-0.324,0.552-0.707,0.552c-0.486,0-0.729-0.243-0.729-0.729c0-0.332,0.25-1.363,0.751-3.095
			C373.19,529.703,373.425,529.518,373.793,529.518z"/>
		<path style="fill:#5B5D65;" d="M377.441,527.331c0-0.081,0.007-0.147,0.021-0.199l2.918-10.211c0.103-0.354,0.339-0.53,0.707-0.53
			c0.486,0,0.729,0.244,0.729,0.731c0,0.066-0.009,0.137-0.025,0.21l-2.66,9.27h3.415v-2.188c0-0.485,0.243-0.729,0.729-0.729
			c0.486,0,0.729,0.243,0.729,0.729v2.188h1.459c0.486,0,0.729,0.243,0.729,0.729s-0.243,0.729-0.729,0.729h-1.459v2.188
			c0,0.486-0.243,0.729-0.729,0.729c-0.485,0-0.729-0.243-0.729-0.729v-2.188h-4.376
			C377.684,528.06,377.441,527.817,377.441,527.331z"/>
		<path style="fill:#5B5D65;" d="M392.756,516.39c1.009,0,1.869,0.355,2.58,1.066s1.066,1.571,1.066,2.58
			c0,0.693-0.221,1.393-0.663,2.1l-4.597,7.382h4.53c0.486,0,0.729,0.243,0.729,0.729s-0.243,0.729-0.729,0.729h-5.834
			c-0.486,0-0.729-0.243-0.729-0.729c0-0.146,0.04-0.287,0.122-0.419l5.347-8.588c0.244-0.39,0.365-0.791,0.365-1.204
			c0-0.604-0.213-1.119-0.641-1.547c-0.427-0.427-0.943-0.641-1.547-0.641c-0.825,0-1.588,0.611-2.287,1.834
			c-0.133,0.236-0.343,0.354-0.63,0.354c-0.486,0-0.729-0.243-0.729-0.729c0-0.111,0.021-0.21,0.066-0.299
			C390.081,517.263,391.276,516.39,392.756,516.39z"/>
	</g>
	<g>
		<path style="fill:#5B5D65;" d="M370,370.769l-1.676,1.677c-0.141,0.138-0.311,0.206-0.51,0.206c-0.488,0-0.731-0.243-0.731-0.729
			c0-0.198,0.069-0.368,0.21-0.508l2.851-2.852c0.191-0.191,0.387-0.287,0.586-0.287c0.486,0,0.729,0.243,0.729,0.729v13.128
			c0,0.486-0.243,0.729-0.729,0.729S370,382.62,370,382.135V370.769z"/>
		<path style="fill:#5B5D65;" d="M375.834,381.404c0.486,0,0.729,0.24,0.729,0.719c0,0.066-0.25,1.102-0.751,3.105
			c-0.089,0.368-0.324,0.552-0.707,0.552c-0.486,0-0.729-0.243-0.729-0.729c0-0.332,0.25-1.363,0.751-3.095
			C375.231,381.589,375.466,381.404,375.834,381.404z"/>
		<path style="fill:#5B5D65;" d="M379.482,379.217c0-0.081,0.007-0.147,0.021-0.199l2.918-10.211c0.103-0.354,0.339-0.53,0.707-0.53
			c0.486,0,0.729,0.244,0.729,0.731c0,0.066-0.009,0.137-0.025,0.21l-2.66,9.27h3.415v-2.188c0-0.485,0.243-0.729,0.729-0.729
			c0.486,0,0.729,0.243,0.729,0.729v2.188h1.459c0.486,0,0.729,0.243,0.729,0.729s-0.243,0.729-0.729,0.729h-1.459v2.188
			c0,0.486-0.243,0.729-0.729,0.729c-0.485,0-0.729-0.243-0.729-0.729v-2.188h-4.376
			C379.725,379.946,379.482,379.703,379.482,379.217z"/>
		<path style="fill:#5B5D65;" d="M394.797,382.863c-1.01,0-1.869-0.355-2.58-1.066s-1.066-1.571-1.066-2.58v-1.459
			c0-1.208,0.486-2.181,1.458-2.917c-0.972-0.737-1.458-1.709-1.458-2.918c0-1.009,0.355-1.869,1.066-2.58s1.57-1.066,2.58-1.066
			c1.009,0,1.869,0.355,2.58,1.066s1.066,1.571,1.066,2.58c0,1.209-0.486,2.181-1.459,2.918c0.7,0.53,1.143,1.183,1.326,1.956
			c0.089,0.391,0.133,1.197,0.133,2.42c0,1.009-0.355,1.869-1.066,2.58S395.806,382.863,394.797,382.863z M394.797,374.111
			c0.611,0,1.129-0.212,1.553-0.636c0.423-0.423,0.635-0.94,0.635-1.553c0-0.604-0.213-1.119-0.641-1.547
			c-0.427-0.427-0.943-0.641-1.547-0.641c-0.611,0-1.129,0.212-1.553,0.635c-0.424,0.424-0.636,0.941-0.636,1.553
			c0,0.612,0.212,1.13,0.636,1.553C393.668,373.899,394.186,374.111,394.797,374.111z M394.797,381.404
			c0.611,0,1.129-0.211,1.553-0.635c0.423-0.424,0.635-0.941,0.635-1.553v-1.459c0-0.604-0.213-1.12-0.641-1.547
			c-0.427-0.428-0.943-0.641-1.547-0.641c-0.611,0-1.129,0.212-1.553,0.635c-0.424,0.424-0.636,0.941-0.636,1.553v1.459
			c0,0.611,0.212,1.129,0.636,1.553S394.186,381.404,394.797,381.404z"/>
	</g>
	<g>
		<path style="fill:#5B5D65;" d="M551.517,96.494l-1.676,1.677c-0.141,0.138-0.311,0.206-0.51,0.206
			c-0.488,0-0.731-0.243-0.731-0.729c0-0.198,0.069-0.368,0.21-0.508l2.851-2.852c0.191-0.191,0.387-0.287,0.586-0.287
			c0.486,0,0.729,0.243,0.729,0.729v13.128c0,0.486-0.243,0.729-0.729,0.729s-0.729-0.243-0.729-0.729V96.494z"/>
		<path style="fill:#5B5D65;" d="M555.893,104.941c0-0.081,0.007-0.147,0.021-0.199l2.918-10.211c0.103-0.354,0.339-0.53,0.707-0.53
			c0.486,0,0.729,0.244,0.729,0.731c0,0.066-0.009,0.137-0.025,0.21l-2.66,9.27h3.415v-2.188c0-0.485,0.243-0.729,0.729-0.729
			c0.486,0,0.729,0.243,0.729,0.729v2.188h1.459c0.486,0,0.729,0.243,0.729,0.729s-0.243,0.729-0.729,0.729h-1.459v2.188
			c0,0.486-0.243,0.729-0.729,0.729c-0.485,0-0.729-0.243-0.729-0.729v-2.188h-4.376
			C556.136,105.671,555.893,105.428,555.893,104.941z"/>
		<path style="fill:#5B5D65;" d="M569.02,107.129c0.486,0,0.729,0.24,0.729,0.719c0,0.066-0.25,1.102-0.751,3.105
			c-0.089,0.368-0.324,0.552-0.707,0.552c-0.486,0-0.729-0.243-0.729-0.729c0-0.332,0.25-1.363,0.751-3.095
			C568.416,107.313,568.652,107.129,569.02,107.129z"/>
		<path style="fill:#5B5D65;" d="M575.584,96.494l-1.676,1.677c-0.141,0.138-0.311,0.206-0.51,0.206
			c-0.488,0-0.731-0.243-0.731-0.729c0-0.198,0.069-0.368,0.21-0.508l2.851-2.852c0.191-0.191,0.387-0.287,0.586-0.287
			c0.486,0,0.729,0.243,0.729,0.729v13.128c0,0.486-0.243,0.729-0.729,0.729s-0.729-0.243-0.729-0.729V96.494z"/>
		<path style="fill:#5B5D65;" d="M583.607,108.588c-1.01,0-1.869-0.355-2.58-1.066s-1.066-1.571-1.066-2.58v-1.459
			c0-1.208,0.486-2.181,1.458-2.917c-0.972-0.737-1.458-1.709-1.458-2.918c0-1.009,0.355-1.869,1.066-2.58s1.57-1.066,2.58-1.066
			c1.009,0,1.869,0.355,2.58,1.066s1.066,1.571,1.066,2.58c0,1.209-0.486,2.181-1.459,2.918c0.7,0.53,1.143,1.183,1.326,1.956
			c0.089,0.391,0.133,1.197,0.133,2.42c0,1.009-0.355,1.869-1.066,2.58S584.616,108.588,583.607,108.588z M583.607,99.836
			c0.611,0,1.129-0.212,1.553-0.636c0.423-0.423,0.635-0.94,0.635-1.553c0-0.604-0.213-1.119-0.641-1.547
			c-0.427-0.427-0.943-0.641-1.547-0.641c-0.611,0-1.129,0.212-1.553,0.635c-0.424,0.424-0.636,0.941-0.636,1.553
			c0,0.612,0.212,1.13,0.636,1.553C582.478,99.624,582.996,99.836,583.607,99.836z M583.607,107.129
			c0.611,0,1.129-0.211,1.553-0.635c0.423-0.424,0.635-0.941,0.635-1.553v-1.459c0-0.604-0.213-1.12-0.641-1.547
			c-0.427-0.428-0.943-0.641-1.547-0.641c-0.611,0-1.129,0.212-1.553,0.635c-0.424,0.424-0.636,0.941-0.636,1.553v1.459
			c0,0.611,0.212,1.129,0.636,1.553S582.996,107.129,583.607,107.129z"/>
	</g>
	<g>
		<path style="fill:#5B5D65;" d="M337.513,96.494l-1.676,1.677c-0.141,0.138-0.311,0.206-0.51,0.206
			c-0.488,0-0.731-0.243-0.731-0.729c0-0.198,0.069-0.368,0.21-0.508l2.851-2.852c0.191-0.191,0.387-0.287,0.586-0.287
			c0.486,0,0.729,0.243,0.729,0.729v13.128c0,0.486-0.243,0.729-0.729,0.729s-0.729-0.243-0.729-0.729V96.494z"/>
		<path style="fill:#5B5D65;" d="M341.889,104.941c0-0.081,0.007-0.147,0.021-0.199l2.918-10.211c0.103-0.354,0.339-0.53,0.707-0.53
			c0.486,0,0.729,0.244,0.729,0.731c0,0.066-0.009,0.137-0.025,0.21l-2.66,9.27h3.415v-2.188c0-0.485,0.243-0.729,0.729-0.729
			c0.486,0,0.729,0.243,0.729,0.729v2.188h1.459c0.486,0,0.729,0.243,0.729,0.729s-0.243,0.729-0.729,0.729h-1.459v2.188
			c0,0.486-0.243,0.729-0.729,0.729c-0.485,0-0.729-0.243-0.729-0.729v-2.188h-4.376
			C342.132,105.671,341.889,105.428,341.889,104.941z"/>
		<path style="fill:#5B5D65;" d="M355.016,107.129c0.486,0,0.729,0.24,0.729,0.719c0,0.066-0.25,1.102-0.751,3.105
			c-0.089,0.368-0.324,0.552-0.707,0.552c-0.486,0-0.729-0.243-0.729-0.729c0-0.332,0.25-1.363,0.751-3.095
			C354.413,107.313,354.648,107.129,355.016,107.129z"/>
		<path style="fill:#5B5D65;" d="M358.664,100.565V94.73c0-0.486,0.243-0.729,0.729-0.729h5.104c0.486,0,0.729,0.243,0.729,0.729
			s-0.243,0.729-0.729,0.729h-4.376v4.376h2.188c1.009,0,1.869,0.357,2.58,1.072c0.711,0.714,1.066,1.572,1.066,2.574v1.459
			c0,1.009-0.357,1.869-1.072,2.58c-0.714,0.711-1.572,1.066-2.574,1.066h-2.917c-0.486,0-0.729-0.243-0.729-0.729
			s0.243-0.729,0.729-0.729h2.917c0.611,0,1.129-0.211,1.553-0.635c0.423-0.424,0.635-0.941,0.635-1.553v-1.459
			c0-0.604-0.213-1.12-0.641-1.547c-0.427-0.428-0.943-0.641-1.547-0.641h-2.917C358.907,101.295,358.664,101.052,358.664,100.565z"
			/>
		<path style="fill:#5B5D65;" d="M368.874,100.565V94.73c0-0.486,0.243-0.729,0.729-0.729h5.104c0.486,0,0.729,0.243,0.729,0.729
			s-0.243,0.729-0.729,0.729h-4.376v4.376h2.188c1.009,0,1.869,0.357,2.58,1.072c0.711,0.714,1.066,1.572,1.066,2.574v1.459
			c0,1.009-0.357,1.869-1.072,2.58c-0.714,0.711-1.572,1.066-2.574,1.066h-2.917c-0.486,0-0.729-0.243-0.729-0.729
			s0.243-0.729,0.729-0.729h2.917c0.611,0,1.129-0.211,1.553-0.635c0.423-0.424,0.635-0.941,0.635-1.553v-1.459
			c0-0.604-0.213-1.12-0.641-1.547c-0.427-0.428-0.943-0.641-1.547-0.641h-2.917C369.118,101.295,368.874,101.052,368.874,100.565z"
			/>
	</g>
	<g>
		<path style="fill:#5B5D65;" d="M554.653,382.863c-1.01,0-1.869-0.355-2.58-1.066s-1.066-1.571-1.066-2.58v-1.459
			c0-1.208,0.486-2.181,1.458-2.917c-0.972-0.737-1.458-1.709-1.458-2.918c0-1.009,0.355-1.869,1.066-2.58s1.57-1.066,2.58-1.066
			c1.009,0,1.869,0.355,2.58,1.066s1.066,1.571,1.066,2.58c0,1.209-0.486,2.181-1.459,2.918c0.7,0.53,1.143,1.183,1.326,1.956
			c0.089,0.391,0.133,1.197,0.133,2.42c0,1.009-0.355,1.869-1.066,2.58S555.662,382.863,554.653,382.863z M554.653,374.111
			c0.611,0,1.129-0.212,1.553-0.636c0.423-0.423,0.635-0.94,0.635-1.553c0-0.604-0.213-1.119-0.641-1.547
			c-0.427-0.427-0.943-0.641-1.547-0.641c-0.611,0-1.129,0.212-1.553,0.635c-0.424,0.424-0.636,0.941-0.636,1.553
			c0,0.612,0.212,1.13,0.636,1.553C553.524,373.899,554.041,374.111,554.653,374.111z M554.653,381.404
			c0.611,0,1.129-0.211,1.553-0.635c0.423-0.424,0.635-0.941,0.635-1.553v-1.459c0-0.604-0.213-1.12-0.641-1.547
			c-0.427-0.428-0.943-0.641-1.547-0.641c-0.611,0-1.129,0.212-1.553,0.635c-0.424,0.424-0.636,0.941-0.636,1.553v1.459
			c0,0.611,0.212,1.129,0.636,1.553S554.041,381.404,554.653,381.404z"/>
		<path style="fill:#5B5D65;" d="M562.675,381.404c0.486,0,0.729,0.24,0.729,0.719c0,0.066-0.25,1.102-0.751,3.105
			c-0.089,0.368-0.324,0.552-0.707,0.552c-0.486,0-0.729-0.243-0.729-0.729c0-0.332,0.25-1.363,0.751-3.095
			C562.072,381.589,562.307,381.404,562.675,381.404z"/>
		<path style="fill:#5B5D65;" d="M570.513,376.3l-0.543-0.001c-0.486,0-0.73-0.243-0.73-0.729c0-0.486,0.242-0.729,0.728-0.729
			l0.859-0.001l1.146-5.104h-4.92c-0.486,0-0.729-0.243-0.729-0.729s0.243-0.729,0.729-0.729h5.834c0.479,0,0.723,0.236,0.729,0.707
			c0,0.045-0.007,0.104-0.022,0.177l-1.262,5.68l0.554,0.001c0.487,0,0.73,0.243,0.73,0.729c0,0.485-0.244,0.729-0.731,0.729
			l-0.888-0.001l-1.32,5.991c-0.088,0.383-0.32,0.574-0.696,0.574c-0.493,0-0.74-0.243-0.74-0.729c0-0.074,0.005-0.129,0.014-0.166
			L570.513,376.3z"/>
		<path style="fill:#5B5D65;" d="M576.534,379.217c0-0.081,0.007-0.147,0.021-0.199l2.918-10.211c0.103-0.354,0.339-0.53,0.707-0.53
			c0.486,0,0.729,0.244,0.729,0.731c0,0.066-0.009,0.137-0.025,0.21l-2.66,9.27h3.415v-2.188c0-0.485,0.243-0.729,0.729-0.729
			c0.486,0,0.729,0.243,0.729,0.729v2.188h1.459c0.486,0,0.729,0.243,0.729,0.729s-0.243,0.729-0.729,0.729h-1.459v2.188
			c0,0.486-0.243,0.729-0.729,0.729c-0.485,0-0.729-0.243-0.729-0.729v-2.188h-4.376
			C576.777,379.946,576.534,379.703,576.534,379.217z"/>
	</g>
</g>
<g id="&#x422;&#x430;&#x431;&#x43B;&#x438;&#x447;&#x43A;&#x438;">
</g>
<g id="_x21__x21__x21__&#x42D;&#x442;&#x430;&#x436;_x2C__&#x441;&#x435;&#x43A;&#x446;&#x438;&#x438;">
</g>
<g id="&#x421;&#x43B;&#x43E;&#x439;_13">
</g>
</svg>
